<svg width="50" height="50" viewBox="0 0 50 50" fill="none" xmlns="http://www.w3.org/2000/svg">
<g id="vuesax/linear/candle-2">
<g id="candle-2">
<path id="Vector" d="M45.8333 36.4584H31.25" stroke="#00A0E4" stroke-width="1.5" stroke-miterlimit="10" stroke-linecap="round" stroke-linejoin="round"/>
<path id="Vector_2" d="M10.4167 36.4584H4.16669" stroke="#00A0E4" stroke-width="1.5" stroke-miterlimit="10" stroke-linecap="round" stroke-linejoin="round"/>
<path id="Vector_3" d="M45.8333 13.5416H39.5833" stroke="#00A0E4" stroke-width="1.5" stroke-miterlimit="10" stroke-linecap="round" stroke-linejoin="round"/>
<path id="Vector_4" d="M18.75 13.5416H4.16669" stroke="#00A0E4" stroke-width="1.5" stroke-miterlimit="10" stroke-linecap="round" stroke-linejoin="round"/>
<path id="Vector_5" d="M14.5834 30.2084H27.0834C29.375 30.2084 31.25 31.25 31.25 34.375V38.5417C31.25 41.6667 29.375 42.7084 27.0834 42.7084H14.5834C12.2917 42.7084 10.4167 41.6667 10.4167 38.5417V34.375C10.4167 31.25 12.2917 30.2084 14.5834 30.2084Z" stroke="#00A0E4" stroke-width="1.5" stroke-miterlimit="10" stroke-linecap="round" stroke-linejoin="round"/>
<path id="Vector_6" d="M22.9167 7.29163H35.4167C37.7083 7.29163 39.5833 8.33329 39.5833 11.4583V15.625C39.5833 18.75 37.7083 19.7916 35.4167 19.7916H22.9167C20.625 19.7916 18.75 18.75 18.75 15.625V11.4583C18.75 8.33329 20.625 7.29163 22.9167 7.29163Z" stroke="#00A0E4" stroke-width="1.5" stroke-miterlimit="10" stroke-linecap="round" stroke-linejoin="round"/>
</g>
</g>
</svg>
