<svg width="50" height="51" viewBox="0 0 50 51" fill="none" xmlns="http://www.w3.org/2000/svg">
<path d="M6.25 19.4792V31.5C6.25 35.9167 6.25 35.9167 10.4167 38.7292L21.875 45.3542C23.6042 46.3542 26.4167 46.3542 28.125 45.3542L39.5833 38.7292C43.75 35.9167 43.75 35.9167 43.75 31.5209V19.4792C43.75 15.0834 43.75 15.0834 39.5833 12.2709L28.125 5.64587C26.4167 4.64587 23.6042 4.64587 21.875 5.64587L10.4167 12.2709C6.25 15.0834 6.25 15.0834 6.25 19.4792Z" stroke="#00A0E4" stroke-width="1.5" stroke-linecap="round" stroke-linejoin="round"/>
<path d="M25 31.75C28.4518 31.75 31.25 28.9518 31.25 25.5C31.25 22.0482 28.4518 19.25 25 19.25C21.5482 19.25 18.75 22.0482 18.75 25.5C18.75 28.9518 21.5482 31.75 25 31.75Z" stroke="#00A0E4" stroke-width="1.5" stroke-linecap="round" stroke-linejoin="round"/>
</svg>
