<svg width="50" height="50" viewBox="0 0 50 50" fill="none" xmlns="http://www.w3.org/2000/svg">
<path d="M27.1042 6.08325L39.3959 11.5416C42.9375 13.1041 42.9375 15.6874 39.3959 17.2499L27.1042 22.7083C25.7084 23.3333 23.4167 23.3333 22.0209 22.7083L9.72919 17.2499C6.18752 15.6874 6.18752 13.1041 9.72919 11.5416L22.0209 6.08325C23.4167 5.45825 25.7084 5.45825 27.1042 6.08325Z" stroke="#00A0E4" stroke-width="1.5" stroke-linecap="round" stroke-linejoin="round"/>
<path d="M6.25 22.9167C6.25 24.6667 7.5625 26.6876 9.16667 27.3959L23.3125 33.6876C24.3958 34.1667 25.625 34.1667 26.6875 33.6876L40.8333 27.3959C42.4375 26.6876 43.75 24.6667 43.75 22.9167" stroke="#00A0E4" stroke-width="1.5" stroke-linecap="round" stroke-linejoin="round"/>
<path d="M6.25 33.3333C6.25 35.2708 7.39583 37.0208 9.16667 37.8124L23.3125 44.1041C24.3958 44.5833 25.625 44.5833 26.6875 44.1041L40.8333 37.8124C42.6042 37.0208 43.75 35.2708 43.75 33.3333" stroke="#00A0E4" stroke-width="1.5" stroke-linecap="round" stroke-linejoin="round"/>
</svg>
