<svg width="50" height="50" viewBox="0 0 50 50" fill="none" xmlns="http://www.w3.org/2000/svg">
<path d="M25 31.25C28.4518 31.25 31.25 28.4518 31.25 25C31.25 21.5482 28.4518 18.75 25 18.75C21.5482 18.75 18.75 21.5482 18.75 25C18.75 28.4518 21.5482 31.25 25 31.25Z" stroke="#00A0E4" stroke-width="1.5" stroke-miterlimit="10" stroke-linecap="round" stroke-linejoin="round"/>
<path d="M4.16669 26.8333V23.1666C4.16669 20.9999 5.93752 19.2083 8.12502 19.2083C11.8959 19.2083 13.4375 16.5416 11.5417 13.2708C10.4584 11.3958 11.1042 8.95828 13 7.87495L16.6042 5.81245C18.25 4.83328 20.375 5.41662 21.3542 7.06245L21.5834 7.45828C23.4584 10.7291 26.5417 10.7291 28.4375 7.45828L28.6667 7.06245C29.6459 5.41662 31.7709 4.83328 33.4167 5.81245L37.0209 7.87495C38.9167 8.95828 39.5625 11.3958 38.4792 13.2708C36.5834 16.5416 38.125 19.2083 41.8959 19.2083C44.0625 19.2083 45.8542 20.9791 45.8542 23.1666V26.8333C45.8542 28.9999 44.0834 30.7916 41.8959 30.7916C38.125 30.7916 36.5834 33.4583 38.4792 36.7291C39.5625 38.6249 38.9167 41.0416 37.0209 42.1249L33.4167 44.1874C31.7709 45.1666 29.6459 44.5833 28.6667 42.9375L28.4375 42.5416C26.5625 39.2708 23.4792 39.2708 21.5834 42.5416L21.3542 42.9375C20.375 44.5833 18.25 45.1666 16.6042 44.1874L13 42.1249C11.1042 41.0416 10.4584 38.6041 11.5417 36.7291C13.4375 33.4583 11.8959 30.7916 8.12502 30.7916C5.93752 30.7916 4.16669 28.9999 4.16669 26.8333Z" stroke="#00A0E4" stroke-width="1.5" stroke-miterlimit="10" stroke-linecap="round" stroke-linejoin="round"/>
</svg>
