<svg width="50" height="50" viewBox="0 0 50 50" fill="none" xmlns="http://www.w3.org/2000/svg">
<path d="M14.5834 12.5H35.4167C36.7084 12.5 37.8542 12.5417 38.875 12.6875C44.3542 13.2917 45.8334 15.875 45.8334 22.9167V27.0833C45.8334 34.125 44.3542 36.7083 38.875 37.3125C37.8542 37.4583 36.7084 37.5 35.4167 37.5H14.5834C13.2917 37.5 12.1459 37.4583 11.125 37.3125C5.64585 36.7083 4.16669 34.125 4.16669 27.0833V22.9167C4.16669 15.875 5.64585 13.2917 11.125 12.6875C12.1459 12.5417 13.2917 12.5 14.5834 12.5Z" stroke="#00A0E4" stroke-width="1.5" stroke-linecap="round" stroke-linejoin="round"/>
<path d="M35.4167 37.5C36.7084 37.5 37.8542 37.4583 38.875 37.3125C38.8959 37.6042 38.8959 37.875 38.8959 38.1875V38.8958C38.8959 44.4375 37.5 45.8333 31.9375 45.8333H18.0625C12.5 45.8333 11.1042 44.4375 11.1042 38.8958V38.1875C11.1042 37.875 11.1042 37.6042 11.125 37.3125C12.1459 37.4583 13.2917 37.5 14.5834 37.5H35.4167Z" stroke="#00A0E4" stroke-width="1.5" stroke-linecap="round" stroke-linejoin="round"/>
<path d="M18.0625 4.16675H31.9375C37.5 4.16675 38.8959 5.56258 38.8959 11.1042V11.8126C38.8959 12.1251 38.8959 12.3959 38.875 12.6876C37.8542 12.5417 36.7084 12.5001 35.4167 12.5001H14.5834C13.2917 12.5001 12.1459 12.5417 11.125 12.6876C11.1042 12.3959 11.1042 12.1251 11.1042 11.8126V11.1042C11.1042 5.56258 12.5 4.16675 18.0625 4.16675Z" stroke="#00A0E4" stroke-width="1.5" stroke-linecap="round" stroke-linejoin="round"/>
</svg>
