<svg width="50" height="51" viewBox="0 0 50 51" fill="none" xmlns="http://www.w3.org/2000/svg">
<g id="vuesax/linear/briefcase">
<g id="briefcase">
<path id="Vector" d="M16.6667 46.3333H33.3334C41.7084 46.3333 43.2084 42.9792 43.6459 38.8958L45.2084 22.2292C45.7709 17.1458 44.3125 13 35.4167 13H14.5834C5.68753 13 4.22919 17.1458 4.79169 22.2292L6.35419 38.8958C6.79169 42.9792 8.29169 46.3333 16.6667 46.3333Z" stroke="#00A0E4" stroke-width="1.5" stroke-miterlimit="10" stroke-linecap="round" stroke-linejoin="round"/>
<path id="Vector_2" d="M16.6667 13V11.3333C16.6667 7.64579 16.6667 4.66663 23.3334 4.66663H26.6667C33.3334 4.66663 33.3334 7.64579 33.3334 11.3333V13" stroke="#00A0E4" stroke-width="1.5" stroke-miterlimit="10" stroke-linecap="round" stroke-linejoin="round"/>
<path id="Vector_3" d="M29.1666 27.5833V29.6667C29.1666 29.6875 29.1666 29.6875 29.1666 29.7083C29.1666 31.9792 29.1458 33.8333 25 33.8333C20.875 33.8333 20.8333 32 20.8333 29.7292V27.5833C20.8333 25.5 20.8333 25.5 22.9166 25.5H27.0833C29.1666 25.5 29.1666 25.5 29.1666 27.5833Z" stroke="#00A0E4" stroke-width="1.5" stroke-miterlimit="10" stroke-linecap="round" stroke-linejoin="round"/>
<path id="Vector_4" d="M45.1042 23.4166C40.2917 26.9166 34.7917 29 29.1667 29.7083" stroke="#00A0E4" stroke-width="1.5" stroke-miterlimit="10" stroke-linecap="round" stroke-linejoin="round"/>
<path id="Vector_5" d="M5.45831 23.9791C10.1458 27.1875 15.4375 29.125 20.8333 29.7291" stroke="#00A0E4" stroke-width="1.5" stroke-miterlimit="10" stroke-linecap="round" stroke-linejoin="round"/>
</g>
</g>
</svg>
