<svg width="104" height="104" viewBox="0 0 104 104" fill="none" xmlns="http://www.w3.org/2000/svg">
<path d="M41.6 86.6667H62.4C79.7333 86.6667 86.6667 79.7334 86.6667 62.4V41.6C86.6667 24.2667 79.7333 17.3334 62.4 17.3334H41.6C24.2667 17.3334 17.3333 24.2667 17.3333 41.6V62.4C17.3333 79.7334 24.2667 86.6667 41.6 86.6667Z" stroke="#BCBCBC" stroke-width="1.5" stroke-linecap="round" stroke-linejoin="round"/>
<path d="M45.5 73.6667H58.5C69.3333 73.6667 73.6667 69.3334 73.6667 58.5V45.5C73.6667 34.6667 69.3333 30.3334 58.5 30.3334H45.5C34.6667 30.3334 30.3333 34.6667 30.3333 45.5V58.5C30.3333 69.3334 34.6667 73.6667 45.5 73.6667Z" stroke="#BCBCBC" stroke-width="1.5" stroke-linecap="round" stroke-linejoin="round"/>
<path d="M34.71 17.3333V8.66663" stroke="#BCBCBC" stroke-width="1.5" stroke-linecap="round" stroke-linejoin="round"/>
<path d="M52 17.3333V8.66663" stroke="#BCBCBC" stroke-width="1.5" stroke-linecap="round" stroke-linejoin="round"/>
<path d="M69.3333 17.3333V8.66663" stroke="#BCBCBC" stroke-width="1.5" stroke-linecap="round" stroke-linejoin="round"/>
<path d="M86.6667 34.6666H95.3333" stroke="#BCBCBC" stroke-width="1.5" stroke-linecap="round" stroke-linejoin="round"/>
<path d="M86.6667 52H95.3333" stroke="#BCBCBC" stroke-width="1.5" stroke-linecap="round" stroke-linejoin="round"/>
<path d="M86.6667 69.3334H95.3333" stroke="#BCBCBC" stroke-width="1.5" stroke-linecap="round" stroke-linejoin="round"/>
<path d="M69.3333 86.6666V95.3333" stroke="#BCBCBC" stroke-width="1.5" stroke-linecap="round" stroke-linejoin="round"/>
<path d="M52.0433 86.6666V95.3333" stroke="#BCBCBC" stroke-width="1.5" stroke-linecap="round" stroke-linejoin="round"/>
<path d="M34.71 86.6666V95.3333" stroke="#BCBCBC" stroke-width="1.5" stroke-linecap="round" stroke-linejoin="round"/>
<path d="M8.66666 34.6666H17.3333" stroke="#BCBCBC" stroke-width="1.5" stroke-linecap="round" stroke-linejoin="round"/>
<path d="M8.66666 52H17.3333" stroke="#BCBCBC" stroke-width="1.5" stroke-linecap="round" stroke-linejoin="round"/>
<path d="M8.66666 69.3334H17.3333" stroke="#BCBCBC" stroke-width="1.5" stroke-linecap="round" stroke-linejoin="round"/>
<path d="M52 42.0333L47.9267 49.14C47.0167 50.7 47.7533 52 49.5733 52H54.4267C56.2467 52 56.9833 53.3 56.0733 54.86L52 61.9667" stroke="#BCBCBC" stroke-width="1.5" stroke-linecap="round" stroke-linejoin="round"/>
</svg>
