<svg width="104" height="104" viewBox="0 0 104 104" fill="none" xmlns="http://www.w3.org/2000/svg">
<g id="vuesax/linear/note">
<g id="note">
<path id="Vector" d="M86.6667 35.75V78C86.6667 91 78.91 95.3333 69.3333 95.3333H34.6667C25.09 95.3333 17.3333 91 17.3333 78V35.75C17.3333 21.6666 25.09 18.4166 34.6667 18.4166C34.6667 21.1033 35.7499 23.5299 37.5266 25.3066C39.3032 27.0833 41.73 28.1666 44.4167 28.1666H59.5833C64.9567 28.1666 69.3333 23.79 69.3333 18.4166C78.91 18.4166 86.6667 21.6666 86.6667 35.75Z" stroke="#BCBCBC" stroke-width="1.5" stroke-linecap="round" stroke-linejoin="round"/>
<path id="Vector_2" d="M69.3333 18.4166C69.3333 23.79 64.9567 28.1666 59.5833 28.1666H44.4167C41.73 28.1666 39.3032 27.0833 37.5266 25.3066C35.7499 23.5299 34.6667 21.1033 34.6667 18.4166C34.6667 13.0433 39.0433 8.66663 44.4167 8.66663H59.5833C62.27 8.66663 64.6968 9.74998 66.4735 11.5266C68.2501 13.3033 69.3333 15.73 69.3333 18.4166Z" stroke="#BCBCBC" stroke-width="1.5" stroke-linecap="round" stroke-linejoin="round"/>
<path id="Vector_3" d="M34.6667 56.3334H52" stroke="#BCBCBC" stroke-width="1.5" stroke-linecap="round" stroke-linejoin="round"/>
<path id="Vector_4" d="M34.6667 73.6666H69.3333" stroke="#BCBCBC" stroke-width="1.5" stroke-linecap="round" stroke-linejoin="round"/>
</g>
</g>
</svg>
