<svg width="64" height="64" viewBox="0 0 64 64" fill="none" xmlns="http://www.w3.org/2000/svg">
<g id="vuesax/linear/messages">
<g id="messages">
<g id="Group">
<path id="Vector" d="M47.9467 28.7734V39.44C47.9467 40.1334 47.92 40.8 47.84 41.44C47.2267 48.64 42.9867 52.2133 35.1733 52.2133H34.1067C33.44 52.2133 32.8 52.5333 32.4 53.0666L29.2 57.3333C27.7867 59.2267 25.4933 59.2267 24.08 57.3333L20.8799 53.0666C20.5333 52.6133 19.76 52.2133 19.1733 52.2133H18.1067C9.6 52.2133 5.33331 50.1067 5.33331 39.44V28.7734C5.33331 20.96 8.93334 16.72 16.1067 16.1067C16.7467 16.0267 17.4133 16 18.1067 16H35.1733C43.68 16 47.9467 20.2667 47.9467 28.7734Z" stroke="#66CDF8" stroke-width="1.5" stroke-miterlimit="10" stroke-linecap="round" stroke-linejoin="round"/>
</g>
<path id="Vector_2" d="M58.6134 18.1067V28.7734C58.6134 36.6134 55.0133 40.8267 47.84 41.4401C47.92 40.8001 47.9467 40.1334 47.9467 39.4401V28.7734C47.9467 20.2667 43.68 16 35.1733 16H18.1067C17.4134 16 16.7467 16.0267 16.1067 16.1067C16.72 8.9334 20.96 5.33337 28.7734 5.33337H45.84C54.3467 5.33337 58.6134 9.60006 58.6134 18.1067Z" stroke="#66CDF8" stroke-width="1.5" stroke-miterlimit="10" stroke-linecap="round" stroke-linejoin="round"/>
<path id="Vector_3" d="M35.988 35.3333H36.012" stroke="#66CDF8" stroke-width="2" stroke-linecap="round" stroke-linejoin="round"/>
<path id="Vector_4" d="M26.6546 35.3333H26.6786" stroke="#66CDF8" stroke-width="2" stroke-linecap="round" stroke-linejoin="round"/>
<path id="Vector_5" d="M17.3213 35.3333H17.3453" stroke="#66CDF8" stroke-width="2" stroke-linecap="round" stroke-linejoin="round"/>
</g>
</g>
</svg>
