<svg width="104" height="104" viewBox="0 0 104 104" fill="none" xmlns="http://www.w3.org/2000/svg">
<path d="M32.4133 79.5167L45.8467 89.9167C47.58 91.65 51.48 92.5167 54.08 92.5167H70.5467C75.7467 92.5167 81.38 88.6167 82.68 83.4167L93.08 51.7834C95.2467 45.7167 91.3467 40.5167 84.8467 40.5167H67.5133C64.9133 40.5167 62.7467 38.35 63.18 35.3167L65.3467 21.45C66.2133 17.55 63.6133 13.2167 59.7133 11.9167C56.2467 10.6167 51.9133 12.35 50.18 14.95L32.4133 41.3834" stroke="#BCBCBC" stroke-width="1.5" stroke-miterlimit="10"/>
<path d="M10.3134 79.5167V37.05C10.3134 30.9833 12.9134 28.8167 18.98 28.8167H23.3134C29.38 28.8167 31.98 30.9833 31.98 37.05V79.5167C31.98 85.5833 29.38 87.75 23.3134 87.75H18.98C12.9134 87.75 10.3134 85.5833 10.3134 79.5167Z" stroke="#BCBCBC" stroke-width="1.5" stroke-linecap="round" stroke-linejoin="round"/>
</svg>
