<svg width="50" height="51" viewBox="0 0 50 51" fill="none" xmlns="http://www.w3.org/2000/svg">
<g id="vuesax/linear/directbox-notif">
<g id="directbox-notif">
<path id="Vector" d="M14.5833 25.5C6.25 25.5 6.25 29.2292 6.25 33.8333V35.9167C6.25 41.6667 6.25 46.3333 16.6667 46.3333H33.3333C41.6667 46.3333 43.75 41.6667 43.75 35.9167V33.8333C43.75 29.2292 43.75 25.5 35.4167 25.5C33.3333 25.5 32.75 25.9375 31.6667 26.75L29.5417 29C27.0833 31.625 22.9167 31.625 20.4375 29L18.3333 26.75C17.25 25.9375 16.6667 25.5 14.5833 25.5Z" stroke="#00A0E4" stroke-width="1.5" stroke-miterlimit="10" stroke-linecap="round" stroke-linejoin="round"/>
<path id="Vector_2" d="M39.5834 25.5V13C39.5834 8.39585 39.5834 4.66669 31.25 4.66669H18.75C10.4167 4.66669 10.4167 8.39585 10.4167 13V25.5" stroke="#00A0E4" stroke-width="1.5" stroke-miterlimit="10" stroke-linecap="round" stroke-linejoin="round"/>
<path id="Vector_3" d="M21.9792 19.7292H28.9167" stroke="#00A0E4" stroke-width="1.5" stroke-linecap="round" stroke-linejoin="round"/>
<path id="Vector_4" d="M20.25 13.4792H30.6667" stroke="#00A0E4" stroke-width="1.5" stroke-linecap="round" stroke-linejoin="round"/>
</g>
</g>
</svg>
