<svg width="104" height="104" viewBox="0 0 104 104" fill="none" xmlns="http://www.w3.org/2000/svg">
<g id="vuesax/linear/cpu-setting">
<g id="cpu-setting">
<path id="Vector" d="M86.6666 41.6C86.6666 24.2667 79.7333 17.3334 62.4 17.3334H41.6C24.2666 17.3334 17.3333 24.2667 17.3333 41.6V62.4C17.3333 79.7334 24.2666 86.6667 41.6 86.6667" stroke="#00A0E4" stroke-width="1.5" stroke-linecap="round" stroke-linejoin="round"/>
<path id="Vector_2" d="M70.85 34.6667C68.4666 31.6334 64.48 30.3334 58.5 30.3334H45.5C34.6666 30.3334 30.3333 34.6667 30.3333 45.5V58.5C30.3333 64.48 31.6333 68.4667 34.6233 70.85" stroke="#00A0E4" stroke-width="1.5" stroke-linecap="round" stroke-linejoin="round"/>
<path id="Vector_3" d="M34.71 17.3333V8.66663" stroke="#00A0E4" stroke-width="1.5" stroke-linecap="round" stroke-linejoin="round"/>
<path id="Vector_4" d="M52 17.3333V8.66663" stroke="#00A0E4" stroke-width="1.5" stroke-linecap="round" stroke-linejoin="round"/>
<path id="Vector_5" d="M69.3333 17.3333V8.66663" stroke="#00A0E4" stroke-width="1.5" stroke-linecap="round" stroke-linejoin="round"/>
<path id="Vector_6" d="M86.6667 34.6666H95.3333" stroke="#00A0E4" stroke-width="1.5" stroke-linecap="round" stroke-linejoin="round"/>
<path id="Vector_7" d="M34.71 86.6666V95.3333" stroke="#00A0E4" stroke-width="1.5" stroke-linecap="round" stroke-linejoin="round"/>
<path id="Vector_8" d="M8.66669 34.6666H17.3334" stroke="#00A0E4" stroke-width="1.5" stroke-linecap="round" stroke-linejoin="round"/>
<path id="Vector_9" d="M8.66669 52H17.3334" stroke="#00A0E4" stroke-width="1.5" stroke-linecap="round" stroke-linejoin="round"/>
<path id="Vector_10" d="M8.66669 69.3334H17.3334" stroke="#00A0E4" stroke-width="1.5" stroke-linecap="round" stroke-linejoin="round"/>
<path id="Vector_11" d="M72.41 80.5566C76.2153 80.5566 79.3 77.4719 79.3 73.6666C79.3 69.8614 76.2153 66.7766 72.41 66.7766C68.6048 66.7766 65.52 69.8614 65.52 73.6666C65.52 77.4719 68.6048 80.5566 72.41 80.5566Z" stroke="#00A0E4" stroke-width="1.5" stroke-miterlimit="10" stroke-linecap="round" stroke-linejoin="round"/>
<path id="Vector_12" d="M49.4434 75.66V71.63C49.4434 69.2467 51.3934 67.2967 53.7767 67.2967C57.9367 67.2967 59.6267 64.35 57.5467 60.7533C56.3334 58.6733 57.07 55.9867 59.15 54.8167L63.0934 52.52C64.9134 51.4367 67.2534 52.0867 68.3367 53.9067L68.5967 54.34C70.6767 57.9367 74.0567 57.9367 76.1367 54.34L76.3967 53.9067C77.48 52.0867 79.82 51.48 81.64 52.52L85.5834 54.8167C87.6634 56.03 88.4 58.6733 87.1867 60.7533C85.1067 64.35 86.7967 67.2967 90.9567 67.2967C93.34 67.2967 95.29 69.2467 95.29 71.63V75.66C95.29 78.0433 93.34 79.9933 90.9567 79.9933C86.7967 79.9933 85.1067 82.94 87.1867 86.5367C88.4 88.6167 87.6634 91.3033 85.5834 92.4733L81.64 94.77C79.82 95.8533 77.48 95.2033 76.3967 93.3833L76.1367 92.95C74.0567 89.3533 70.6767 89.3533 68.5967 92.95L68.3367 93.3833C67.2534 95.2033 64.9134 95.81 63.0934 94.77L59.15 92.4733C57.07 91.26 56.3334 88.6167 57.5467 86.5367C59.6267 82.94 57.9367 79.9933 53.7767 79.9933C51.3934 80.0367 49.4434 78.0867 49.4434 75.66Z" stroke="#00A0E4" stroke-width="1.5" stroke-miterlimit="10" stroke-linecap="round" stroke-linejoin="round"/>
</g>
</g>
</svg>
