<svg width="104" height="104" viewBox="0 0 104 104" fill="none" xmlns="http://www.w3.org/2000/svg">
<g id="vuesax/linear/lamp-charge">
<g id="lamp-charge">
<path id="Vector" d="M52 34.1899L47.3634 42.2499C46.3234 44.0266 47.19 45.4999 49.2267 45.4999H54.73C56.81 45.4999 57.6334 46.9733 56.5934 48.7499L52 56.8099" stroke="#00A0E4" stroke-width="1.5" stroke-linecap="round" stroke-linejoin="round"/>
<path id="Vector_2" d="M35.9667 78.1733V73.1466C26 67.1233 17.81 55.3799 17.81 42.8999C17.81 21.4499 37.5267 4.63661 59.8 9.48995C69.5933 11.6566 78.1733 18.1566 82.6367 27.1266C91.6933 45.3266 82.16 64.6533 68.1633 73.1033V78.1299C68.1633 79.3866 68.64 82.2899 64.0033 82.2899H40.1267C35.36 82.3333 35.9667 80.4699 35.9667 78.1733Z" stroke="#00A0E4" stroke-width="1.5" stroke-linecap="round" stroke-linejoin="round"/>
<path id="Vector_3" d="M36.8333 95.3333C46.7566 92.5167 57.2433 92.5167 67.1666 95.3333" stroke="#00A0E4" stroke-width="1.5" stroke-linecap="round" stroke-linejoin="round"/>
</g>
</g>
</svg>
