<svg width="30" height="30" viewBox="0 0 30 30" fill="none" xmlns="http://www.w3.org/2000/svg">
<g id="Frame" clip-path="url(#clip0_62_2595)">
<g id="Group">
<g id="Lathe Machine">
<g id="Group_2">
<path id="Vector" d="M9.375 26.25H5.625C5.37636 26.25 5.1379 26.1512 4.96209 25.9754C4.78627 25.7996 4.6875 25.5611 4.6875 25.3125V21.5625C4.6875 21.3139 4.78627 21.0754 4.96209 20.8996C5.1379 20.7238 5.37636 20.625 5.625 20.625H9.375C9.62364 20.625 9.8621 20.7238 10.0379 20.8996C10.2137 21.0754 10.3125 21.3139 10.3125 21.5625V25.3125C10.3125 25.5611 10.2137 25.7996 10.0379 25.9754C9.8621 26.1512 9.62364 26.25 9.375 26.25ZM6.5625 24.375H8.4375V22.5H6.5625V24.375ZM16.875 26.25H13.125C12.8764 26.25 12.6379 26.1512 12.4621 25.9754C12.2863 25.7996 12.1875 25.5611 12.1875 25.3125V21.5625C12.1875 21.3139 12.2863 21.0754 12.4621 20.8996C12.6379 20.7238 12.8764 20.625 13.125 20.625H16.875C17.1236 20.625 17.3621 20.7238 17.5379 20.8996C17.7137 21.0754 17.8125 21.3139 17.8125 21.5625V25.3125C17.8125 25.5611 17.7137 25.7996 17.5379 25.9754C17.3621 26.1512 17.1236 26.25 16.875 26.25ZM14.0625 24.375H15.9375V22.5H14.0625V24.375ZM24.375 24.375H20.625C20.3764 24.375 20.1379 24.2762 19.9621 24.1004C19.7863 23.9246 19.6875 23.6861 19.6875 23.4375C19.6875 23.1889 19.7863 22.9504 19.9621 22.7746C20.1379 22.5988 20.3764 22.5 20.625 22.5H24.375C24.6236 22.5 24.8621 22.5988 25.0379 22.7746C25.2137 22.9504 25.3125 23.1889 25.3125 23.4375C25.3125 23.6861 25.2137 23.9246 25.0379 24.1004C24.8621 24.2762 24.6236 24.375 24.375 24.375Z" fill="#00A0E4"/>
</g>
<path id="Vector_2" d="M29.0625 13.125H25.3125V11.25C25.8098 11.25 26.2867 11.0525 26.6383 10.7008C26.99 10.3492 27.1875 9.87228 27.1875 9.375V5.625C27.1875 5.12772 26.99 4.65081 26.6383 4.29917C26.2867 3.94754 25.8098 3.75 25.3125 3.75H18.75C18.5812 3.75 16.2563 4.35 14.775 4.6875C14.567 4.73883 14.3828 4.85986 14.2532 5.03043C14.1236 5.20101 14.0563 5.41084 14.0625 5.625V6.5625H13.125C12.8764 6.5625 12.6379 6.66127 12.4621 6.83709C12.2863 7.0129 12.1875 7.25136 12.1875 7.5C12.1875 7.74864 12.2863 7.9871 12.4621 8.16291C12.6379 8.33873 12.8764 8.4375 13.125 8.4375H14.0625V9.375C14.0563 9.58916 14.1236 9.79899 14.2532 9.96957C14.3828 10.1401 14.567 10.2612 14.775 10.3125C19.3875 11.4656 18.3 11.25 19.6875 11.25V13.125H7.5V11.25H8.4375C8.68614 11.25 8.9246 11.1512 9.10041 10.9754C9.27623 10.7996 9.375 10.5611 9.375 10.3125C9.375 10.0639 9.27623 9.8254 9.10041 9.64959C8.9246 9.47377 8.68614 9.375 8.4375 9.375H7.5V5.625H8.4375C8.68614 5.625 8.9246 5.52623 9.10041 5.35041C9.27623 5.1746 9.375 4.93614 9.375 4.6875C9.375 4.43886 9.27623 4.2004 9.10041 4.02459C8.9246 3.84877 8.68614 3.75 8.4375 3.75H7.5V1.875C7.5 1.37772 7.30246 0.900805 6.95083 0.549175C6.59919 0.197544 6.12228 0 5.625 0L3.75 0C3.25272 0 2.77581 0.197544 2.42417 0.549175C2.07254 0.900805 1.875 1.37772 1.875 1.875V13.125H0.9375C0.68886 13.125 0.450403 13.2238 0.274587 13.3996C0.098772 13.5754 0 13.8139 0 14.0625L0 17.8125C0 18.0611 0.098772 18.2996 0.274587 18.4754C0.450403 18.6512 0.68886 18.75 0.9375 18.75V29.0625C0.9375 29.3111 1.03627 29.5496 1.21209 29.7254C1.3879 29.9012 1.62636 30 1.875 30H28.125C28.3736 30 28.6121 29.9012 28.7879 29.7254C28.9637 29.5496 29.0625 29.3111 29.0625 29.0625V21.5625C29.0625 21.3139 29.0625 19.0246 29.0625 18.75C28.8139 18.75 28.3736 18.75 28.125 18.75C27.8764 18.75 27.5 18.75 27.1875 18.75C27.1875 19.75 27.1875 21.3139 27.1875 21.5625V28.125H2.8125V18.75H29.0625C29.3111 18.75 29.5496 18.6512 29.7254 18.4754C29.9012 18.2996 30 18.0611 30 17.8125V14.0625C30 13.8139 29.9012 13.5754 29.7254 13.3996C29.5496 13.2238 29.3111 13.125 29.0625 13.125ZM19.6875 5.625H25.3125V9.375H19.6875V5.625ZM15.9375 6.35625L17.8125 5.8875V9.1125L15.9375 8.64375V6.35625ZM21.5625 11.25H23.4375V13.125H21.5625V11.25ZM3.75 1.875H5.625V13.125H3.75V1.875ZM1.875 16.875V15H28.125V16.875H1.875Z" fill="#00A0E4"/>
</g>
</g>
</g>
<defs>
<clipPath id="clip0_62_2595">
<rect width="30" height="30" fill="white"/>
</clipPath>
</defs>
</svg>
