<svg width="30" height="30" viewBox="0 0 30 30" fill="none" xmlns="http://www.w3.org/2000/svg">
<g id="thermaling 1" clip-path="url(#clip0_62_2657)">
<g id="&#208;&#161;&#208;&#187;&#208;&#190;&#208;&#185; 1">
<g id="Group">
<path id="Vector" d="M1.2207e-05 22.6209C0.216809 22.0983 0.600598 21.9151 1.14318 21.952C1.95236 22.0064 2.68185 22.2677 3.36798 22.702C3.81388 22.9838 4.25626 23.3104 4.74493 23.4749C5.58575 23.758 6.42013 23.6461 7.1754 23.1211C7.82286 22.6711 8.46974 22.2199 9.25724 22.0608C10.5047 21.8086 11.676 21.9804 12.767 22.6862C13.2182 22.9784 13.6711 23.3062 14.1686 23.4749C15.0088 23.7604 15.8438 23.6461 16.599 23.1211C17.2383 22.6772 17.8764 22.2302 18.6522 22.0675C19.9201 21.802 21.1084 21.9792 22.2152 22.702C22.657 22.9905 23.1035 23.3098 23.5922 23.4749C24.433 23.7592 25.2674 23.6443 26.0227 23.1211C26.6221 22.7056 27.2168 22.2768 27.934 22.1044C28.2363 22.0318 28.5486 22.0028 28.8568 21.9598C29.3971 21.8848 29.7826 22.0983 29.9994 22.6209V28.3669C29.7844 28.8713 29.4094 29.0401 28.8809 29.0395C19.6266 29.0292 10.3717 29.0292 1.1174 29.0395C0.588879 29.0395 0.213879 28.8713 -0.00115967 28.3669V22.6209H1.2207e-05ZM28.2481 23.8463C28.0307 23.9576 27.8449 24.0387 27.6727 24.1445C27.4295 24.2939 27.1963 24.4596 26.9602 24.6205C25.8674 25.3681 24.6744 25.5483 23.4029 25.2937C22.6143 25.1358 21.9662 24.6858 21.3182 24.2352C20.5535 23.7036 19.7104 23.5935 18.8596 23.8814C18.3797 24.0435 17.9414 24.3592 17.509 24.6441C16.4227 25.3602 15.252 25.5423 14.0016 25.2985C13.2018 25.1425 12.5455 24.6877 11.8899 24.231C11.1352 23.7054 10.299 23.5977 9.45763 23.8741C8.97716 24.032 8.5424 24.3538 8.10353 24.6308C6.60236 25.578 5.06134 25.6844 3.48224 24.8733C3.08263 24.6683 2.72052 24.3858 2.33439 24.1499C2.15802 24.0423 1.96642 23.9606 1.759 23.856V27.2153H28.2481V23.8457V23.8463Z" fill="#00A0E4"/>
<path id="Vector_2" d="M0 28.3669C0.215039 28.8713 0.590039 29.0401 1.11855 29.0395C10.3729 29.0292 19.6277 29.0292 28.882 29.0395C29.4105 29.0395 29.7855 28.8713 30.0006 28.3669V29.9999H0C0 29.4556 0 28.9112 0 28.3669Z" fill="white"/>
<path id="Vector_3" d="M5.45504 18.8963C5.46852 18.0199 5.85172 17.3346 6.47809 16.774C6.77282 16.5103 7.08161 16.2598 7.35582 15.975C7.73375 15.5812 7.732 15.0798 7.35289 14.683C7.09332 14.4115 6.80328 14.1701 6.52028 13.9228C5.10407 12.6865 5.08766 10.8072 6.48395 9.55159C6.77106 9.29392 7.07282 9.05138 7.34118 8.77376C7.73375 8.36792 7.73786 7.8659 7.34996 7.45824C7.09098 7.18606 6.79684 6.94957 6.51618 6.69917C5.09 5.42659 5.08825 3.57457 6.51207 2.30985C6.77809 2.07336 7.07164 1.86046 7.29957 1.59009C7.45485 1.40562 7.57203 1.14796 7.61305 0.906021C7.71266 0.321142 8.08883 -0.0538582 8.59039 0.00723048C9.09899 0.068924 9.3943 0.51711 9.34918 1.1032C9.28707 1.90703 8.91793 2.53062 8.3443 3.04775C8.05778 3.30602 7.75543 3.54796 7.48649 3.82437C7.07282 4.24896 7.07516 4.75703 7.49118 5.18404C7.75368 5.4532 8.04606 5.6915 8.32789 5.94009C9.71539 7.16368 9.71071 9.07013 8.31852 10.2919C8.02848 10.5459 7.73082 10.7939 7.46305 11.0709C7.08043 11.4671 7.08454 11.9861 7.47536 12.3865C7.75192 12.6695 8.06246 12.9169 8.35485 13.1836C9.46461 14.1967 9.7025 15.7173 8.88043 16.8665C8.58981 17.273 8.19137 17.6032 7.81696 17.9389C7.46715 18.2522 7.18883 18.5691 7.15192 19.0887C7.11793 19.5599 6.67555 19.8762 6.23727 19.8284C5.77789 19.7782 5.4486 19.3857 5.45563 18.8957L5.45504 18.8963Z" fill="#00A0E4"/>
<path id="Vector_4" d="M24.5455 15.2861C24.5438 16.1915 24.1893 16.8834 23.5746 17.4447C23.3408 17.6582 23.0988 17.8627 22.8598 18.0701C22.582 18.3115 22.3945 18.5879 22.3623 18.9871C22.3178 19.5338 21.8854 19.8895 21.4084 19.8278C20.908 19.7631 20.611 19.3209 20.6502 18.759C20.7082 17.9322 21.0844 17.2917 21.6785 16.7643C21.9668 16.5084 22.268 16.2641 22.5346 15.9859C22.9207 15.5824 22.919 15.075 22.5299 14.6709C22.2627 14.3927 21.9615 14.1496 21.6733 13.8931C20.2846 12.6586 20.2881 10.7703 21.6832 9.54191C21.9059 9.34594 22.1356 9.15784 22.3541 8.95703C22.9869 8.37578 22.9817 7.83324 22.3412 7.25441C22.1356 7.06872 21.9217 6.89271 21.7143 6.70945C20.2711 5.43566 20.2693 3.58183 21.7108 2.30017C21.9029 2.129 22.0981 1.96146 22.2943 1.79513C22.5897 1.54412 22.7918 1.25622 22.8328 0.835254C22.8873 0.278198 23.3121 -0.0586976 23.7932 0.00904438C24.2807 0.077996 24.5772 0.498964 24.5426 1.05904C24.4916 1.88404 24.1154 2.52941 23.5225 3.05925C23.2272 3.32296 22.9195 3.57396 22.6453 3.85884C22.2709 4.24775 22.2738 4.76126 22.6488 5.15138C22.9096 5.42235 23.1985 5.66489 23.482 5.91166C24.9059 7.15219 24.9117 9.05138 23.4949 10.3034C23.2061 10.5586 22.9072 10.8054 22.6401 11.083C22.2785 11.4586 22.2738 11.9764 22.6342 12.3544C22.9137 12.6478 23.2301 12.9048 23.5318 13.1752C24.1688 13.7443 24.5426 14.4453 24.5467 15.2873L24.5455 15.2861Z" fill="#00A0E4"/>
<path id="Vector_5" d="M14.4146 1.00821C14.3871 1.86043 13.9992 2.52152 13.3904 3.06587C13.1027 3.32293 12.8021 3.56668 12.5338 3.84369C12.1465 4.24289 12.1459 4.75942 12.5297 5.15801C12.7834 5.42172 13.067 5.65579 13.3423 5.89652C14.7832 7.15579 14.7925 9.0326 13.3611 10.3082C13.1543 10.4927 12.941 10.6693 12.7336 10.8532C12.0849 11.429 12.0797 11.9981 12.7201 12.5758C12.9334 12.7681 13.1531 12.952 13.3693 13.1413C14.7756 14.3709 14.7791 16.2755 13.3781 17.5124C13.1039 17.7544 12.8045 17.9751 12.5695 18.2534C12.4136 18.4378 12.2976 18.6973 12.2578 18.9399C12.164 19.5048 11.7943 19.881 11.3039 19.8308C10.8017 19.7794 10.5006 19.3524 10.5275 18.7796C10.5662 17.9594 10.94 17.3268 11.5177 16.7987C11.8101 16.532 12.1207 16.2846 12.3972 16.0016C12.7945 15.5945 12.7945 15.0701 12.3996 14.6643C12.1377 14.3945 11.8441 14.158 11.564 13.907C10.1437 12.635 10.1548 10.7673 11.5875 9.51648C11.8705 9.2697 12.1599 9.02716 12.4195 8.75559C12.7886 8.3691 12.7857 7.84833 12.4142 7.46426C12.1529 7.19389 11.864 6.95135 11.581 6.70458C10.1531 5.4574 10.1478 3.57031 11.5711 2.31345C11.7937 2.11688 12.0187 1.92393 12.2431 1.72978C12.508 1.50055 12.665 1.22051 12.706 0.855789C12.7681 0.302362 13.1425 -0.0302994 13.6189 0.00599095C14.1129 0.043491 14.4322 0.446918 14.4146 1.00942V1.00821Z" fill="#00A0E4"/>
<path id="Vector_6" d="M15.5853 18.8268C15.6123 17.974 16.0008 17.3135 16.6095 16.7691C16.8972 16.5121 17.1972 16.2671 17.4668 15.9913C17.8535 15.5951 17.8552 15.0732 17.472 14.677C17.2177 14.4139 16.9365 14.1774 16.6605 13.9373C15.2168 12.681 15.2068 10.8048 16.6388 9.5268C16.9195 9.27639 17.2125 9.0393 17.4726 8.76772C17.8558 8.36793 17.8535 7.8526 17.4674 7.4522C17.1996 7.17458 16.9008 6.92841 16.6119 6.67256C15.2238 5.44353 15.2285 3.54736 16.6224 2.32317C16.8972 2.08184 17.1955 1.85986 17.431 1.58164C17.5869 1.39716 17.7041 1.13829 17.7439 0.895749C17.8371 0.32841 18.2004 -0.0417509 18.6967 0.00603139C19.2 0.0538137 19.5 0.479015 19.473 1.05482C19.4343 1.87498 19.0617 2.50825 18.4834 3.03567C18.191 3.3024 17.8804 3.54978 17.6039 3.83285C17.2072 4.23809 17.2066 4.7643 17.6015 5.17014C17.8705 5.44656 18.1717 5.6897 18.4588 5.94736C19.8486 7.19393 19.8375 9.06531 18.4353 10.2974C18.1459 10.552 17.8476 10.7994 17.581 11.0782C17.2119 11.4641 17.2148 11.9885 17.5863 12.3701C17.8623 12.6538 18.1699 12.9042 18.4646 13.1691C19.4695 14.0722 19.7789 15.3339 19.2193 16.4855C19.0365 16.8617 18.7295 17.1804 18.4482 17.4962C18.2449 17.7242 17.9912 17.9044 17.7597 18.1052C17.4955 18.3345 17.3355 18.6127 17.2957 18.9786C17.2365 19.529 16.8562 19.8683 16.384 19.8314C15.89 19.7927 15.5695 19.3887 15.5865 18.8268H15.5853Z" fill="#00A0E4"/>
</g>
</g>
</g>
<defs>
<clipPath id="clip0_62_2657">
<rect width="30" height="30" fill="white"/>
</clipPath>
</defs>
</svg>
