<svg width="30" height="30" viewBox="0 0 30 30" fill="none" xmlns="http://www.w3.org/2000/svg">
<g id="Frame" clip-path="url(#clip0_62_2692)">
<g id="Group">
<path id="Vector" d="M12.3529 16.7647C12.3529 15.3051 11.1655 14.1177 9.70588 14.1177C6.19418 14.2631 6.19524 19.267 9.70588 19.4118C11.1655 19.4118 12.3529 18.2243 12.3529 16.7647ZM8.82353 16.7647C8.82353 16.2782 9.21929 15.8824 9.70588 15.8824C10.8765 15.9309 10.8761 17.5988 9.70588 17.6471C9.21929 17.6471 8.82353 17.2513 8.82353 16.7647Z" fill="#00A0E4"/>
<path id="Vector_2" d="M27.3529 25.5882V22.6249C28.9711 20.8369 28.2468 17.8916 26.0321 17.0242L26.0327 17.0229L15 12.4369V8.36524L19.4118 4.83588V1C19.4118 0.447716 18.964 0 18.4118 0H1C0.447717 0 0 0.447715 0 1V4.83588L4.41176 8.36524V13.5865C2.499 16.6482 3.84976 20.8884 7.05882 22.3444V24.7059H4.52941C3.97713 24.7059 3.52941 25.1536 3.52941 25.7059V29C3.52941 29.5523 3.97713 30 4.52941 30H14.8824C15.4346 30 15.8824 29.5523 15.8824 29V25.7059C15.8824 25.1536 15.4346 24.7059 14.8824 24.7059H12.3529V23.0984L22.0588 23.6694V25.5882H20.4118C19.8595 25.5882 19.4118 26.036 19.4118 26.5882V29C19.4118 29.5523 19.8595 30 20.4118 30H29C29.5523 30 30 29.5523 30 29V26.5882C30 26.036 29.5523 25.5882 29 25.5882H27.3529ZM24.724 22.0584L24.4821 22.0441C23.6144 21.9338 22.9412 21.1913 22.9412 20.2941C23.0381 17.953 26.374 17.9537 26.4706 20.2941C26.4706 21.2611 25.6887 22.0486 24.724 22.0584ZM5.60365 7.05882L3.39776 5.29412H16.0141L13.8082 7.05882H5.60365ZM6.17647 8.82353H13.2353V11.6989C11.1155 10.2175 8.29724 10.2169 6.17647 11.6989V8.82353ZM15.4688 14.5429L22.5635 17.4919C21.2053 18.5328 20.7971 20.3715 21.5501 21.8716L13.7675 21.4138C15.7762 19.6568 16.3794 16.8967 15.4688 14.5429ZM17.6471 1.76471V3.52941H1.76471V1.76471H17.6471ZM5.29412 16.7647C5.29412 14.3321 7.27318 12.3529 9.70588 12.3529C15.5587 12.5953 15.557 20.9351 9.70582 21.1765C7.27318 21.1765 5.29412 19.1974 5.29412 16.7647ZM14.1176 28.2353H5.29412V26.4706H14.1176V28.2353ZM10.5882 24.7059H8.82353V22.8779C8.95759 22.8972 8.82965 22.9038 10.5882 22.9946V24.7059ZM23.8235 23.7732C24.3846 23.7913 24.8445 23.904 25.5882 23.7119V25.5882H23.8235V23.7732ZM28.2353 28.2353H21.1765V27.3529H28.2353V28.2353Z" fill="#00A0E4"/>
</g>
</g>
<defs>
<clipPath id="clip0_62_2692">
<rect width="30" height="30" fill="white"/>
</clipPath>
</defs>
</svg>
