<svg width="30" height="30" viewBox="0 0 30 30" fill="none" xmlns="http://www.w3.org/2000/svg">
<g id="Frame">
<g id="Group">
<path id="Vector" d="M26.25 25.875C26.25 26.9796 25.3546 27.875 24.25 27.875H2C0.89543 27.875 0 26.9796 0 25.875V13C0 11.8954 0.895431 11 2 11H24.25C25.3546 11 26.25 11.8954 26.25 13V25.875ZM1.875 26H24.375V12.875H1.875V26Z" fill="#00A0E4"/>
<path id="Vector_2" d="M30 22.1875C30 22.7398 29.5523 23.1875 29 23.1875H25.3125V21.3125H28.125V17.5625H25.3125V15.6875H29C29.5523 15.6875 30 16.1352 30 16.6875V22.1875Z" fill="#00A0E4"/>
<g id="Vector_3">
<path d="M6.82677 23.0866V15.9134C6.82677 15.4089 6.41783 15 5.91339 15C5.40894 15 5 15.4089 5 15.9134V23.0866C5 23.5911 5.40894 24 5.91339 24C6.41783 24 6.82677 23.5911 6.82677 23.0866Z" fill="#00A0E4"/>
<path d="M11.5512 23.0866V15.9134C11.5512 15.4089 11.1422 15 10.6378 15C10.1333 15 9.72441 15.4089 9.72441 15.9134V23.0866C9.72441 23.5911 10.1333 24 10.6378 24C11.1422 24 11.5512 23.5911 11.5512 23.0866Z" fill="#00A0E4"/>
<path d="M16.2756 23.0866V15.9134C16.2756 15.4089 15.8667 15 15.3622 15C14.8578 15 14.4488 15.4089 14.4488 15.9134V23.0866C14.4488 23.5911 14.8578 24 15.3622 24C15.8667 24 16.2756 23.5911 16.2756 23.0866Z" fill="#00A0E4"/>
<path d="M21 23.0866V15.9134C21 15.4089 20.5911 15 20.0866 15C19.5822 15 19.1732 15.4089 19.1732 15.9134V23.0866C19.1732 23.5911 19.5822 24 20.0866 24C20.5911 24 21 23.5911 21 23.0866Z" fill="#00A0E4"/>
</g>
</g>
<rect id="Rectangle 13" x="16" y="4" width="6" height="2" rx="1" fill="#00A0E4"/>
<g id="Vector_4">
<path d="M4 5C4 4.44772 4.44772 4 5 4H9C9.55228 4 10 4.44772 10 5C10 5.55228 9.55228 6 9 6H5C4.44772 6 4 5.55228 4 5Z" fill="#00A0E4"/>
<path d="M7 2C7.55228 2 8 2.44772 8 3L8 7C8 7.55228 7.55228 8 7 8C6.44772 8 6 7.55228 6 7L6 3C6 2.44772 6.44772 2 7 2Z" fill="#00A0E4"/>
</g>
</g>
</svg>
