<svg width="30" height="30" viewBox="0 0 30 30" fill="none" xmlns="http://www.w3.org/2000/svg">
<g id="Frame" clip-path="url(#clip0_62_2607)">
<g id="Group">
<path id="Vector" d="M30 16.8959C30 16.3436 29.5523 15.8959 29 15.8959H28.7319V8.27943C28.7319 8.01421 28.6266 7.75986 28.439 7.57232L26.1946 5.32785C26.007 5.14032 25.7527 5.03496 25.4874 5.03496H19.3368V2.60541C19.3368 2.05313 18.8891 1.60541 18.3368 1.60541H15.8789V0.878906C15.8789 0.393499 15.4854 0 15 0C14.5146 0 14.1211 0.3935 14.1211 0.878906V1.60541H11.6632C11.1109 1.60541 10.6632 2.05313 10.6632 2.60541V5.03496H4.51255C4.24734 5.03496 3.99298 5.14032 3.80545 5.32785L1.56098 7.57232C1.37344 7.75986 1.26809 8.01421 1.26809 8.27943V15.8959H1C0.447716 15.8959 0 16.3436 0 16.8959V23.5518C0 24.1041 0.447715 24.5518 1 24.5518H1.26809V29C1.26809 29.5523 1.7158 30 2.26809 30H27.7319C28.2842 30 28.7319 29.5523 28.7319 29V24.5518H29C29.5523 24.5518 30 24.1041 30 23.5518V16.8959ZM28.2422 22.794H1.75781V17.6537H28.2422V22.794ZM25.2163 6.83555L26.9741 8.59336V15.8959H25.2163V6.83555ZM12.421 3.36322H17.5789V5.03496H12.421V3.36322ZM15 9.21059L14.1211 8.65904V6.79277H15.8789V8.6591L15 9.21059ZM12.3633 6.79277V9.63123L14.1211 10.7343V11.6491C14.1211 12.1345 14.5146 12.528 15 12.528C15.4854 12.528 15.8789 12.1345 15.8789 11.6491V10.7343L17.6367 9.63123V6.79277H23.4585V15.8959H15.8789V15.3739C15.8789 14.8885 15.4854 14.495 15 14.495C14.5146 14.495 14.1211 14.8885 14.1211 15.3739V15.8959H6.54152V6.79277H12.3633ZM3.0259 8.59336L4.78371 6.83555V15.8959H3.0259V8.59336ZM26.9741 28.2422H25.2163V27.2759C25.2163 26.7905 24.8228 26.397 24.3374 26.397C23.852 26.397 23.4585 26.7905 23.4585 27.2759V28.2422H21.7007V27.2759C21.7007 26.7905 21.3072 26.397 20.8218 26.397C20.3364 26.397 19.9429 26.7905 19.9429 27.2759V28.2422H18.185V27.2759C18.185 26.7905 17.7915 26.397 17.3061 26.397C16.8207 26.397 16.4272 26.7905 16.4272 27.2759V28.2422H3.0259V24.5518H26.9741V28.2422Z" fill="#00A0E4"/>
<path id="Vector_2" d="M3.39844 20.2904C3.39844 19.805 3.79194 19.4115 4.27734 19.4115C4.76275 19.4115 5.15625 19.805 5.15625 20.2904C5.15625 20.7758 4.76275 21.1693 4.27734 21.1693C3.79194 21.1693 3.39844 20.7758 3.39844 20.2904ZM6.91406 20.2904C6.91406 19.805 7.30756 19.4115 7.79297 19.4115C8.27838 19.4115 8.67188 19.805 8.67188 20.2904C8.67188 20.7758 8.27838 21.1693 7.79297 21.1693C7.30756 21.1693 6.91406 20.7758 6.91406 20.2904ZM10.4297 20.2904C10.4297 19.805 10.8232 19.4115 11.3086 19.4115C11.794 19.4115 12.1875 19.805 12.1875 20.2904C12.1875 20.7758 11.794 21.1693 11.3086 21.1693C10.8232 21.1693 10.4297 20.7758 10.4297 20.2904Z" fill="#00A0E4"/>
</g>
</g>
<defs>
<clipPath id="clip0_62_2607">
<rect width="30" height="30" fill="white"/>
</clipPath>
</defs>
</svg>
