<svg width="30" height="30" viewBox="0 0 30 30" fill="none" xmlns="http://www.w3.org/2000/svg">
<g id="Frame" clip-path="url(#clip0_62_2682)">
<g id="Group">
<path id="Vector" d="M15.6839 27.4219C15.3222 28.2496 14.4963 28.8281 13.5352 28.8281C12.2408 28.8281 11.1914 27.7788 11.1914 26.4844V26.455C11.1914 25.5565 10.6393 24.7525 9.80303 24.4241C8.8411 24.046 7.94272 23.5228 7.13912 22.8728C6.43799 22.3061 5.46475 22.218 4.68076 22.6632L4.67742 22.6652C3.54832 23.3013 2.11535 22.9053 1.47668 21.7806C0.838008 20.6558 1.23563 19.2283 2.36473 18.5921L2.38277 18.5818C3.15463 18.1435 3.59045 17.2801 3.4674 16.401C3.40185 15.932 3.36902 15.459 3.36914 14.9854C3.36914 14.4838 3.40576 13.9909 3.47625 13.5089C3.60627 12.6203 3.16447 11.745 2.38354 11.3014L2.36467 11.2907C1.23557 10.6545 0.838008 9.22699 1.47668 8.10229C2.11535 6.97752 3.54838 6.58148 4.67748 7.2177L4.74469 7.2559C5.52545 7.69934 6.49301 7.61227 7.19525 7.05275C7.98351 6.42434 8.8612 5.91718 9.79928 5.54807C10.6368 5.21883 11.1914 4.41557 11.1914 3.51562C11.1914 2.22123 12.2408 1.17188 13.5352 1.17188C14.8296 1.17188 15.8789 2.22123 15.8789 3.51562V3.53918C15.8789 4.43502 16.4285 5.23553 17.2605 5.56752C17.7907 5.77904 18.327 6.03404 18.8086 6.32812M17.8711 14.244C17.526 12.1613 15.7157 10.6055 13.5352 10.6055C11.1081 10.6055 9.14063 12.573 9.14063 15C9.14063 17.427 11.1081 19.3945 13.5352 19.3945C13.8503 19.3947 14.1645 19.3616 14.4727 19.2958M23.1445 1.17188V18.1641M20.8594 25.4883L19.5703 26.7773M27.3047 18.6914L26.0156 19.9805M20.2734 19.9805L18.9844 18.6914M25.4297 25.4883L26.7188 26.7773M19.278 22.8516H17.4609M28.8281 22.8516H27.011" stroke="#00A0E4" stroke-width="2" stroke-miterlimit="10" stroke-linecap="round" stroke-linejoin="round"/>
</g>
</g>
<defs>
<clipPath id="clip0_62_2682">
<rect width="30" height="30" fill="white"/>
</clipPath>
</defs>
</svg>
