<svg width="30" height="30" viewBox="0 0 30 30" fill="none" xmlns="http://www.w3.org/2000/svg">
<g id="Frame">
<path id="Vector" d="M28.9276 23.6842C28.7303 23.4868 28.5329 23.4868 28.3355 23.4868H1.78947C1.59211 23.4868 1.39474 23.5855 1.19737 23.6842C1.09868 23.7829 1 24.0789 1 24.2763V29.2105C1 29.4079 1.09868 29.6052 1.19737 29.8026C1.39474 29.9013 1.59211 30 1.78947 30H22.8092C23.0066 30 23.2039 29.9013 23.4013 29.8026C23.5 29.6052 23.5987 29.4079 23.5987 29.2105V28.8158H24.5855C27.0526 28.8158 29.125 26.8421 29.125 24.2763C29.125 24.0789 29.0263 23.8816 28.9276 23.6842ZM2.67763 28.421V25.1644H22.0197V28.421H2.67763ZM24.6842 27.1381H23.6974V25.0658H27.5461C27.3487 25.6579 27.0526 26.1513 26.5592 26.4473C25.9671 26.9408 25.2763 27.1381 24.6842 27.1381Z" fill="#00A0E4"/>
<path id="Vector_2" d="M28.9276 0.197368C28.7303 0.0986842 28.5329 0 28.3355 0H13.5329C13.3355 0 13.1382 0.0986842 12.9408 0.197368C12.7434 0.394737 12.7434 0.592105 12.7434 0.789474V3.25658C12.7434 3.45395 12.8421 3.65132 12.9408 3.84868C13.1382 3.94737 13.3355 4.04605 13.5329 4.04605H14.5197V6.01974L14.125 6.41447C13.9276 6.61184 13.9276 6.80921 13.9276 7.00658V14.8026H13.1382V11.9408C13.1382 11.7434 13.0395 11.5461 12.9408 11.3487C12.7434 11.1513 12.5461 11.1513 12.3487 11.1513H8.59868C8.40132 11.1513 8.30263 11.25 8.10526 11.3487L5.63816 13.2237C5.53947 13.3224 5.44079 13.4211 5.44079 13.5197C5.44079 13.6184 5.34211 13.7171 5.34211 13.9145V14.9013H3.66447C3.46711 14.9013 3.26974 15 3.07237 15.0987C2.875 15.2961 2.875 15.4934 2.875 15.6908V18.1579C2.875 18.3553 2.97368 18.5526 3.07237 18.75C3.26974 18.8487 3.46711 18.9474 3.66447 18.9474H5.34211V21.8092C5.34211 22.0066 5.44079 22.2039 5.53947 22.4013C5.73684 22.5 5.93421 22.5987 6.13158 22.5987H12.25C12.4474 22.5987 12.6447 22.5 12.8421 22.4013C13.0395 22.2039 13.0395 22.0066 13.0395 21.8092V18.9474H24.6842C24.8816 18.9474 25.0789 18.8487 25.2763 18.75C25.4737 18.5526 25.4737 18.3553 25.4737 18.1579V16.4803H27.1513C27.3487 16.4803 27.5461 16.3816 27.7434 16.2829C27.9408 16.0855 27.9408 15.8882 27.9408 15.6908V7.00658C27.9408 6.9079 27.9408 6.80921 27.8421 6.71053C27.8421 6.61184 27.7434 6.51316 27.6447 6.41447L27.25 6.01974V4.04605H28.2368C28.4342 4.04605 28.6316 3.94737 28.8289 3.84868C29.0263 3.65132 29.0263 3.45395 29.0263 3.25658V0.789474C29.125 0.592105 29.0263 0.394737 28.9276 0.197368ZM5.34211 17.2697H4.45395V16.4803H5.24342V17.2697H5.34211ZM11.4605 20.9211H6.92105V14.1118L8.89474 12.7303H11.4605V20.9211ZM13.9276 17.2697H13.1382V16.4803H13.9276V17.2697ZM16.3947 17.2697H15.6053V14.0132H16.3947V17.2697ZM18.8618 17.2697H18.0724V14.0132H18.8618V17.2697ZM21.3289 17.2697H20.5395V14.0132H21.3289V17.2697ZM23.0066 17.2697V16.4803H23.7961V17.2697H23.0066ZM26.2632 14.8026H23.0066V14.0132H24.6842C24.8816 14.0132 25.0789 13.9145 25.2763 13.8158C25.4737 13.6184 25.4737 13.4211 25.4737 13.2237V10.7566C25.4737 10.5592 25.375 10.3618 25.2763 10.1645C25.0789 9.96711 24.8816 9.86842 24.6842 9.86842H23.0066V8.19079C23.0066 7.99342 22.9079 7.79605 22.8092 7.59868C22.5132 7.30263 21.9211 7.30263 21.625 7.59868C21.4276 7.79605 21.4276 7.99342 21.4276 8.19079V10.6579C21.4276 10.8553 21.5263 11.0526 21.625 11.25C21.8224 11.3487 22.0197 11.4474 22.2171 11.4474H23.8947V12.2368H15.7039V7.30263L16 6.9079C16.0987 6.71053 16.1974 6.51316 16.1974 6.31579V4.14474H25.6711V6.41447C25.6711 6.51316 25.6711 6.61184 25.7697 6.71053C25.7697 6.80921 25.8684 6.9079 25.9671 7.00658L26.3618 7.40132V14.8026H26.2632ZM27.5461 2.46711H14.3224V1.67763H27.4474V2.46711H27.5461Z" fill="#00A0E4"/>
</g>
</svg>
