<svg width="261" height="55" viewBox="0 0 261 55" fill="none" xmlns="http://www.w3.org/2000/svg">
<path d="M77.4453 39.7455L77.0544 44.2054H66.3551V15.0967H65.6222L66.1108 10.6368H77.4453L76.9567 15.0967H70.9964V22.9182H76.4682L75.9796 27.378L70.9964 27.3888V39.7455H77.4453Z" fill="white"/>
<path d="M85.0367 44.2054H80.3954L83.0336 15.0967H82.1542L82.6427 10.6368H91.5833L94.6123 44.2054H89.9711L89.4336 38.4508H85.5741L85.0367 44.2054ZM85.9649 33.9909H89.0428L87.5283 17.3026L85.9649 33.9909Z" fill="white"/>
<path d="M105.95 44.1623V15.0536H105.217L105.706 10.5938H113.327L115.672 27.3888L118.066 10.5938H125.541V44.1623H120.9V18.0748L117.285 38.0828H114.109L110.591 18.6502V44.1623H105.95Z" fill="white"/>
<path d="M140.581 39.7455L140.19 44.2054H129.49V15.0967H128.758L129.246 10.6368H140.581L140.092 15.0967H134.132V22.929H139.604L139.115 27.3888H134.132V39.7455H140.581Z" fill="white"/>
<path d="M143.781 15.0967V10.6368H157.216V15.0967H152.819V44.2054H148.178V15.0967H143.781Z" fill="white"/>
<path d="M163.607 44.2054H158.966L161.604 15.0967H160.725L161.213 10.6368H170.154L173.183 44.2054H168.542L168.004 38.4508H164.145L163.607 44.2054ZM164.536 33.9909H167.614L166.099 17.3026L164.536 33.9909Z" fill="white"/>
<path d="M188.681 39.7455V44.2054H176.613V15.0967H175.88L176.369 10.6368H181.255V39.7455H188.681Z" fill="white"/>
<path d="M192.473 44.2054L189.444 10.6368H194.085L195.893 30.4423L197.945 16.6469H201.12L203.172 30.4423L204.98 10.6368H209.621L206.592 44.2054H201.902L199.557 27.3888L197.163 44.2054H192.473Z" fill="white"/>
<path d="M225.524 39.9374C225.524 41.2801 225.101 42.3671 224.254 43.1983C223.407 43.9976 222.251 44.2054 220.883 44.2054H217.365C215.997 44.2054 214.939 43.9976 214.092 43.1983C213.245 42.3671 212.822 41.2801 212.822 39.9374V14.9048C212.822 13.5621 213.245 12.4911 214.092 11.6919C214.939 10.8606 216.046 10.6369 217.414 10.6369H220.932C222.3 10.6369 223.407 10.8606 224.254 11.6919C225.101 12.4911 225.524 13.5621 225.524 14.9048V39.9374ZM217.707 14.9048C217.545 14.9048 217.463 14.9848 217.463 15.1446V39.6976C217.463 39.8574 217.545 39.9374 217.707 39.9374H220.639C220.802 39.9374 220.883 39.8574 220.883 39.6976V15.1446C220.883 14.9848 220.802 14.9048 220.639 14.9048H217.707Z" fill="white"/>
<path d="M228.723 15.0967L229.211 10.6368H236.931C238.299 10.6368 239.406 11.0525 240.253 11.8837C241.1 12.6829 241.523 13.7539 241.523 15.0967V30.1066C241.523 30.8099 241.376 31.4493 241.083 32.0248C240.79 32.5683 240.399 33.0318 239.911 33.4155L243.037 44.2054H238.347L235.563 34.5664H234.097V44.2054H229.456V15.0967H228.723ZM236.637 15.0967H234.097V30.1066H236.637C236.8 30.1066 236.882 30.0267 236.882 29.8668V15.3364C236.882 15.1766 236.8 15.0967 236.637 15.0967Z" fill="white"/>
<path d="M245.988 44.2054V15.0967H245.256L245.744 10.6368H250.63V19.9881L254.88 10.6368H260.01L253.854 24.1602L260.498 44.2054H255.369L250.63 29.9148V44.2054H245.988Z" fill="white"/>
<path d="M27.6797 16.752H16.9769V27.3832L27.6797 27.3832L27.6797 16.752Z" fill="#00A0E4"/>
<path d="M16.9769 10.5723H10.752V16.752H16.9769L16.9769 10.5723Z" fill="#00A0E4"/>
<path d="M44.6405 38.0257H38.4157V44.2054H44.6405V38.0257Z" fill="#00A0E4"/>
<path d="M38.3883 27.3888H27.6854V38.02L38.3883 38.02V27.3888Z" fill="#00A0E4"/>
<path d="M1.21017e-06 44.1408V54.7776H10.752H27.6854L27.6854 44.1408H10.752L10.752 27.3888L0 27.3888L1.21017e-06 44.1408Z" fill="#00A0E4"/>
<path d="M55.3708 0H27.6854V10.6368L44.6188 10.6368V27.3888H55.3708V10.6368L55.3708 0Z" fill="#00A0E4"/>
</svg>
