<svg width="233" height="49" viewBox="0 0 233 49" fill="none" xmlns="http://www.w3.org/2000/svg">
<path d="M69.121 35.3921L68.7721 39.3634H59.2228V13.4431H58.5688L59.0048 9.47176H69.121L68.6849 13.4431H63.3652V20.4079H68.2489L67.8129 24.3792L63.3652 24.3888V35.3921H69.121Z" fill="#1B2430"/>
<path d="M75.8964 39.3634H71.754L74.1086 13.4431H73.3237L73.7598 9.47176H81.7393L84.4428 39.3634H80.3004L79.8208 34.2391H76.376L75.8964 39.3634ZM76.7249 30.2678H79.4719L78.1202 15.4074L76.7249 30.2678Z" fill="#1B2430"/>
<path d="M94.5619 39.325V13.4047H93.9078L94.3439 9.43341H101.146L103.239 24.3888L105.376 9.43341H112.047V39.325H107.905V16.095L104.678 33.9114H101.844L98.7043 16.6074V39.325H94.5619Z" fill="#1B2430"/>
<path d="M125.47 35.3921L125.121 39.3634H115.572V13.4431H114.918L115.354 9.47176H125.47L125.034 13.4431H119.714V20.4175H124.598L124.162 24.3888H119.714V35.3921H125.47Z" fill="#1B2430"/>
<path d="M128.326 13.4431V9.47176H140.317V13.4431H136.393V39.3634H132.251V13.4431H128.326Z" fill="#1B2430"/>
<path d="M146.022 39.3634H141.879L144.234 13.4431H143.449L143.885 9.47176H151.865L154.568 39.3634H150.426L149.946 34.2391H146.501L146.022 39.3634ZM146.85 30.2678H149.597L148.246 15.4074L146.85 30.2678Z" fill="#1B2430"/>
<path d="M168.4 35.3921V39.3634H157.63V13.4431H156.976L157.412 9.47176H161.772V35.3921H168.4Z" fill="#1B2430"/>
<path d="M171.785 39.3634L169.081 9.47176H173.223L174.837 27.1078L176.668 14.8235H179.502L181.334 27.1078L182.947 9.47176H187.09L184.386 39.3634H180.2L178.107 24.3888L175.971 39.3634H171.785Z" fill="#1B2430"/>
<path d="M201.283 35.5629C201.283 36.7585 200.906 37.7265 200.15 38.4666C199.394 39.1783 198.362 39.3634 197.141 39.3634H194.002C192.781 39.3634 191.836 39.1783 191.08 38.4666C190.324 37.7265 189.946 36.7585 189.946 35.5629V13.2723C189.946 12.0766 190.324 11.1229 191.08 10.4112C191.836 9.67103 192.824 9.47178 194.045 9.47178H197.185C198.406 9.47178 199.394 9.67103 200.15 10.4112C200.906 11.1229 201.283 12.0766 201.283 13.2723V35.5629ZM194.307 13.2723C194.162 13.2723 194.089 13.3434 194.089 13.4858V35.3494C194.089 35.4917 194.162 35.5629 194.307 35.5629H196.923C197.068 35.5629 197.141 35.4917 197.141 35.3494V13.4858C197.141 13.3434 197.068 13.2723 196.923 13.2723H194.307Z" fill="#1B2430"/>
<path d="M204.138 13.4431L204.574 9.47176H211.464C212.685 9.47176 213.673 9.84184 214.429 10.582C215.185 11.2937 215.563 12.2474 215.563 13.4431V26.8089C215.563 27.4352 215.432 28.0046 215.17 28.517C214.908 29.0009 214.56 29.4137 214.124 29.7554L216.914 39.3634H212.728L210.243 30.7802H208.935V39.3634H204.792V13.4431H204.138ZM211.202 13.4431H208.935V26.8089H211.202C211.348 26.8089 211.42 26.7377 211.42 26.5954V13.6566C211.42 13.5142 211.348 13.4431 211.202 13.4431Z" fill="#1B2430"/>
<path d="M219.548 39.3634V13.4431H218.894L219.33 9.47176H223.69V17.7987L227.484 9.47176H232.062L226.568 21.5138L232.498 39.3634H227.92L223.69 26.6381V39.3634H219.548Z" fill="#1B2430"/>
<path d="M24.7046 14.9171H15.1521V24.3838L24.7046 24.3838L24.7046 14.9171Z" fill="#00A0E4"/>
<path d="M15.1521 9.41423H9.59634V14.9171H15.1521L15.1521 9.41423Z" fill="#00A0E4"/>
<path d="M39.8423 33.8606H34.2865V39.3634H39.8423V33.8606Z" fill="#00A0E4"/>
<path d="M34.262 24.3888H24.7096V33.8556L34.262 33.8556V24.3888Z" fill="#00A0E4"/>
<path d="M1.08009e-06 39.3059V48.7776H9.59634H24.7096L24.7096 39.3059H9.59634L9.59634 24.3888L0 24.3888L1.08009e-06 39.3059Z" fill="#00A0E4"/>
<path d="M49.4192 0H24.7096V9.47176L39.8229 9.47175V24.3888H49.4192V9.47175L49.4192 0Z" fill="#00A0E4"/>
</svg>
