<svg width="0" height="0" class="hidden">
  <symbol fill="none" xmlns="http://www.w3.org/2000/svg" viewBox="0 0 16 17" id="ic_arr_ver">
    <path d="M13.28 6.46667L8.9333 10.8133C8.41997 11.3267 7.57997 11.3267 7.06664 10.8133L2.71997 6.46667" stroke="currentColor" stroke-width="1.5" stroke-miterlimit="10" stroke-linecap="round" stroke-linejoin="round"></path>
  </symbol>
  <symbol fill="none" xmlns="http://www.w3.org/2000/svg" viewBox="0 0 24 24" id="ic_arrow_hor">
    <path fill-rule="evenodd" clip-rule="evenodd" d="M10.1003 5.39985C9.80744 5.10695 9.33256 5.10695 9.03967 5.39985L2.96967 11.4698C2.82902 11.6105 2.75 11.8013 2.75 12.0002C2.75 12.1991 2.82902 12.3899 2.96967 12.5305L9.03967 18.6005C9.33256 18.8934 9.80744 18.8934 10.1003 18.6005C10.3932 18.3076 10.3932 17.8327 10.1003 17.5398L4.56066 12.0002L10.1003 6.46051C10.3932 6.16761 10.3932 5.69274 10.1003 5.39985Z" fill="currentColor"></path>
    <path fill-rule="evenodd" clip-rule="evenodd" d="M21.25 12.0002C21.25 11.586 20.9142 11.2502 20.5 11.2502H3.67C3.25579 11.2502 2.92 11.586 2.92 12.0002C2.92 12.4144 3.25579 12.7502 3.67 12.7502H20.5C20.9142 12.7502 21.25 12.4144 21.25 12.0002Z" fill="currentColor"></path>
  </symbol>
  <symbol fill="none" xmlns="http://www.w3.org/2000/svg" viewBox="0 0 24 24" id="ic_email">
    <path d="M17 20.5H7C4 20.5 2 19 2 15.5V8.5C2 5 4 3.5 7 3.5H17C20 3.5 22 5 22 8.5V15.5C22 19 20 20.5 17 20.5Z" stroke="currentColor" stroke-width="1.5" stroke-miterlimit="10" stroke-linecap="round" stroke-linejoin="round"></path>
    <path d="M17 9L13.87 11.5C12.84 12.32 11.15 12.32 10.12 11.5L7 9" stroke="currentColor" stroke-width="1.5" stroke-miterlimit="10" stroke-linecap="round" stroke-linejoin="round"></path>
  </symbol>
  <symbol fill="none" xmlns="http://www.w3.org/2000/svg" viewBox="0 0 24 24" id="ic_fb">
    <path d="M12 0C18.6274 0 24 5.37259 24 12C24 18.1352 19.3955 23.1944 13.4538 23.9121V15.667L16.7001 15.667L17.3734 12H13.4538V10.7031C13.4538 9.73417 13.6439 9.06339 14.0799 8.63483C14.5159 8.20627 15.1979 8.01993 16.1817 8.01993C16.4307 8.01993 16.6599 8.02241 16.8633 8.02736C17.1591 8.03456 17.4002 8.047 17.568 8.06467V4.74048C17.501 4.72184 17.4218 4.70321 17.3331 4.68486C17.1321 4.6433 16.8822 4.60324 16.6136 4.56806C16.0523 4.49453 15.4093 4.4423 14.9594 4.4423C13.1424 4.4423 11.7692 4.83102 10.8107 5.63619C9.65388 6.60791 9.10108 8.18622 9.10108 10.4199V12H6.62659V15.667H9.10108V23.6466C3.87432 22.3498 0 17.6277 0 12C0 5.37259 5.37259 0 12 0Z" fill="currentColor"></path>
  </symbol>
  <symbol fill="none" xmlns="http://www.w3.org/2000/svg" viewBox="0 0 24 24" id="ic_linkedin">
    <path d="M12 0C5.37188 0 0 5.37188 0 12C0 18.6281 5.37188 24 12 24C18.6281 24 24 18.6281 24 12C24 5.37188 18.6281 0 12 0ZM8.64375 17.0203H6.30469V9.53437H8.64375V17.0203ZM7.41094 8.59687H7.39219C6.54375 8.59687 5.99531 8.025 5.99531 7.29844C5.99531 6.55781 6.5625 6 7.425 6C8.2875 6 8.81719 6.55781 8.83594 7.29844C8.84062 8.02031 8.29219 8.59687 7.41094 8.59687ZM18 17.0203H15.3469V13.1484C15.3469 12.1359 14.9344 11.4422 14.0203 11.4422C13.3219 11.4422 12.9328 11.9109 12.7547 12.3609C12.6891 12.5203 12.6984 12.7453 12.6984 12.975V17.0203H10.0688C10.0688 17.0203 10.1016 10.1578 10.0688 9.53437H12.6984V10.7109C12.8531 10.1953 13.6922 9.46406 15.0328 9.46406C16.6969 9.46406 18 10.5422 18 12.8578V17.0203Z" fill="currentColor"></path>
  </symbol>
  <symbol fill="none" xmlns="http://www.w3.org/2000/svg" viewBox="0 0 24 24" id="ic_message">
    <path d="M22 10V15C22 20 20 22 15 22H9C4 22 2 20 2 15V9C2 4 4 2 9 2H14" stroke="currentColor" stroke-width="1.5" stroke-linecap="round" stroke-linejoin="round"></path>
    <path d="M22 10H18C15 10 14 9 14 6V2L22 10Z" stroke="currentColor" stroke-width="1.5" stroke-linecap="round" stroke-linejoin="round"></path>
    <path d="M7 13H13" stroke="currentColor" stroke-width="1.5" stroke-linecap="round" stroke-linejoin="round"></path>
    <path d="M7 17H11" stroke="currentColor" stroke-width="1.5" stroke-linecap="round" stroke-linejoin="round"></path>
  </symbol>
  <symbol fill="none" xmlns="http://www.w3.org/2000/svg" viewBox="0 0 24 24" id="ic_phone">
    <path d="M21.97 18.33C21.97 18.69 21.89 19.06 21.72 19.42C21.55 19.78 21.33 20.12 21.04 20.44C20.55 20.98 20.01 21.37 19.4 21.62C18.8 21.87 18.15 22 17.45 22C16.43 22 15.34 21.76 14.19 21.27C13.04 20.78 11.89 20.12 10.75 19.29C9.6 18.45 8.51 17.52 7.47 16.49C6.44 15.45 5.51 14.36 4.68 13.22C3.86 12.08 3.2 10.94 2.72 9.81C2.24 8.67 2 7.58 2 6.54C2 5.86 2.12 5.21 2.36 4.61C2.6 4 2.98 3.44 3.51 2.94C4.15 2.31 4.85 2 5.59 2C5.87 2 6.15 2.06 6.4 2.18C6.66 2.3 6.89 2.48 7.07 2.74L9.39 6.01C9.57 6.26 9.7 6.49 9.79 6.71C9.88 6.92 9.93 7.13 9.93 7.32C9.93 7.56 9.86 7.8 9.72 8.03C9.59 8.26 9.4 8.5 9.16 8.74L8.4 9.53C8.29 9.64 8.24 9.77 8.24 9.93C8.24 10.01 8.25 10.08 8.27 10.16C8.3 10.24 8.33 10.3 8.35 10.36C8.53 10.69 8.84 11.12 9.28 11.64C9.73 12.16 10.21 12.69 10.73 13.22C11.27 13.75 11.79 14.24 12.32 14.69C12.84 15.13 13.27 15.43 13.61 15.61C13.66 15.63 13.72 15.66 13.79 15.69C13.87 15.72 13.95 15.73 14.04 15.73C14.21 15.73 14.34 15.67 14.45 15.56L15.21 14.81C15.46 14.56 15.7 14.37 15.93 14.25C16.16 14.11 16.39 14.04 16.64 14.04C16.83 14.04 17.03 14.08 17.25 14.17C17.47 14.26 17.7 14.39 17.95 14.56L21.26 16.91C21.52 17.09 21.7 17.3 21.81 17.55C21.91 17.8 21.97 18.05 21.97 18.33Z" stroke="currentColor" stroke-width="1.5" stroke-miterlimit="10"></path>
  </symbol>
  <symbol fill="none" xmlns="http://www.w3.org/2000/svg" viewBox="0 0 24 24" id="ic_plus">
    <path d="M6 12H18" stroke="currentColor" stroke-width="1.5" stroke-linecap="round" stroke-linejoin="round"></path>
    <path d="M12 18V6" stroke="currentColor" stroke-width="1.5" stroke-linecap="round" stroke-linejoin="round"></path>
  </symbol>
  <symbol fill="none" xmlns="http://www.w3.org/2000/svg" viewBox="0 0 24 24" id="ic_user">
    <path d="M12.16 10.87C12.06 10.86 11.94 10.86 11.83 10.87C9.45 10.79 7.56 8.84 7.56 6.44C7.56 3.99 9.54 2 12 2C14.45 2 16.44 3.99 16.44 6.44C16.43 8.84 14.54 10.79 12.16 10.87Z" stroke="currentColor" stroke-width="1.5" stroke-linecap="round" stroke-linejoin="round"></path>
    <path d="M7.15997 14.56C4.73997 16.18 4.73997 18.82 7.15997 20.43C9.90997 22.27 14.42 22.27 17.17 20.43C19.59 18.81 19.59 16.17 17.17 14.56C14.43 12.73 9.91997 12.73 7.15997 14.56Z" stroke="currentColor" stroke-width="1.5" stroke-linecap="round" stroke-linejoin="round"></path>
  </symbol>
</svg>